<?xml version="1.0" encoding="UTF-8"?>
<svg width="296px" height="73px" viewBox="0 0 296 73" version="1.1" xmlns="http://www.w3.org/2000/svg" xmlns:xlink="http://www.w3.org/1999/xlink">
    <title>Group 11</title>
    <g id="Page-1" stroke="none" stroke-width="1" fill="none" fill-rule="evenodd">
        <g id="MacBook-Air-13&quot;" transform="translate(-50, -50)" fill="#2F3739">
            <g id="Group-11" transform="translate(50, 50)">
                <path d="M141.793469,46.8491311 C139.655782,48.9499543 136.69855,50 132.921043,50 C129.169855,50 126.245522,48.9565399 124.147313,46.868888 C122.048373,44.7819679 121,41.7437868 121,37.7521495 L121,22.9739449 C121,22.4361166 121.435726,22 121.973072,22 L126.085415,22 C126.622761,22 127.058487,22.4361166 127.058487,22.9739449 L127.058487,37.5948256 C127.058487,39.8002875 127.576094,41.4869463 128.61277,42.6555338 C129.648715,43.8241213 131.110881,44.4073174 132.999269,44.4073174 C134.887657,44.4073174 136.349823,43.8431465 137.38723,42.7140729 C138.422444,41.5864628 138.941513,39.9451718 138.941513,37.7916634 L138.941513,22.9739449 C138.941513,22.4361166 139.376508,22 139.914585,22 L144.026928,22 C144.564274,22 145,22.4361166 145,22.9739449 L145,37.5553116 C145,41.6515876 143.930425,44.7497713 141.793469,46.8491311" id="Fill-1"></path>
                <path d="M165.550679,50 L161.450048,50 C160.917556,50 160.486178,49.5749894 160.486178,49.0503557 L160.486178,28.9458484 C160.486178,28.6871151 160.273036,28.4771183 160.010427,28.4771183 L153.96387,28.4771183 C153.431377,28.4771183 153,28.0521077 153,27.527474 L153,23.9496443 C153,23.4250106 153.431377,23 153.96387,23 L173.03613,23 C173.568623,23 174,23.4250106 174,23.9496443 L174,27.527474 C174,28.0521077 173.568623,28.4771183 173.03613,28.4771183 L166.990301,28.4771183 C166.727692,28.4771183 166.514549,28.6871151 166.514549,28.9458484 L166.514549,49.0503557 C166.514549,49.5749894 166.083172,50 165.550679,50" id="Fill-2"></path>
                <path d="M183.97557,23 L188.057677,23 C188.596425,23 189.033247,23.4300276 189.033247,23.960395 L189.033247,44.1143555 C189.033247,44.382406 189.25457,44.59957 189.526856,44.59957 L200.02443,44.59957 C200.563177,44.59957 201,45.0295976 201,45.5606817 L201,49.039605 C201,49.5699724 200.563177,50 200.02443,50 L183.97557,50 C183.436823,50 183,49.5699724 183,49.039605 L183,23.960395 C183,23.4300276 183.436823,23 183.97557,23" id="Fill-3"></path>
                <path d="M216,23.9603695 L216,49.0396305 C216,49.5699838 215.587014,50 215.077664,50 L211.789607,50 C211.280257,50 210.867271,49.5699838 210.867271,49.0396305 L210,23.9603695 C210,23.4300162 210.412986,23 210.922336,23 L215.077664,23 C215.587014,23 216,23.4300162 216,23.9603695" id="Fill-4"></path>
                <path d="M233.86485,33.3863244 L233.86485,49.0575478 C233.86485,49.5778674 233.442552,50 232.922029,50 L228.942821,50 C228.422298,50 228,49.5778674 228,49.0575478 L228,23.9424522 C228,23.4221326 228.422298,23 228.942821,23 L231.95268,23 C232.914142,23 233.820398,23.4493669 234.403298,24.214079 L245.80104,39.1865262 C245.908586,39.3277148 246.134433,39.2517453 246.134433,39.0740053 L246.134433,23.9424522 C246.134433,23.4221326 246.556731,23 247.077971,23 L251.057179,23 C251.578419,23 252,23.4221326 252,23.9424522 L252,49.0575478 C252,49.5778674 251.578419,50 251.057179,50 L248.470335,50 C247.50959,50 246.603334,49.5513498 246.021151,48.7866376 L234.198243,33.2738035 C234.090697,33.1326149 233.86485,33.2085844 233.86485,33.3863244" id="Fill-5"></path>
                <path d="M263.95945,23 L280.846496,23 C281.375997,23 281.805946,23.426444 281.805946,23.9532279 L281.805946,27.3310947 C281.805946,27.8578785 281.375997,28.2843226 280.846496,28.2843226 L269.431202,28.2843226 C269.159959,28.2843226 268.939935,28.5036367 268.939935,28.7731206 L268.939935,33.2726428 C268.939935,33.5428435 269.159959,33.7614409 269.431202,33.7614409 L278.253094,33.7614409 C278.783317,33.7614409 279.212545,34.1878849 279.212545,34.7146687 L279.212545,38.0925356 C279.212545,38.6193194 278.783317,39.0457634 278.253094,39.0457634 L269.431202,39.0457634 C269.159959,39.0457634 268.939935,39.2643608 268.939935,39.5345615 L268.939935,44.2268794 C268.939935,44.4970801 269.159959,44.7156774 269.431202,44.7156774 L281.04055,44.7156774 C281.570772,44.7156774 282,45.1421215 282,45.6689053 L282,49.0467721 C282,49.573556 281.570772,50 281.04055,50 L263.95945,50 C263.429949,50 263,49.573556 263,49.0467721 L263,23.9532279 C263,23.426444 263.429949,23 263.95945,23" id="Fill-6"></path>
                <path d="M92.5655594,36.5398352 C92.5655594,37.6139361 92.7727023,38.6214036 93.1898851,39.5607892 C93.6063437,40.5016234 94.1763487,41.3200549 94.9020729,42.0182567 C95.6270729,42.7164585 96.4657842,43.2661838 97.4189311,43.6688811 C98.3720779,44.0723027 99.3723027,44.2736513 100.42033,44.2736513 C101.493706,44.2736513 102.507692,44.0723027 103.460839,43.6688811 C104.413262,43.2661838 105.246179,42.7164585 105.958142,42.0182567 C106.669381,41.3200549 107.232867,40.5016234 107.65005,39.5607892 C108.065784,38.6214036 108.273651,37.6139361 108.273651,36.5398352 C108.273651,35.4664585 108.065784,34.4452298 107.65005,33.479046 C107.232867,32.5121379 106.675899,31.6661838 105.978422,30.9419081 C105.279496,30.2161838 104.448027,29.6461788 103.481119,29.2297203 C102.514935,28.813986 101.493706,28.6053946 100.42033,28.6053946 C99.3447802,28.6053946 98.3315185,28.8205045 97.3783716,29.2492757 C96.4252248,29.6794955 95.593032,30.2567433 94.8817932,30.9817433 C94.1698302,31.706019 93.6063437,32.5461788 93.1898851,33.4993257 C92.7727023,34.4524725 92.5655594,35.4664585 92.5655594,36.5398352 M86,36.5398352 C86,34.5531469 86.3758991,32.6736513 87.1276973,30.9013487 C87.8794955,29.1283217 88.9065185,27.5856144 90.2094905,26.2696054 C91.511014,24.9535964 93.0356144,23.9128122 94.7811189,23.147977 C96.5266234,22.3824176 98.4053946,22 100.42033,22 C102.433816,22 104.31983,22.3824176 106.079096,23.147977 C107.837637,23.9128122 109.381793,24.9535964 110.711563,26.2696054 C112.039885,27.5856144 113.087912,29.1225275 113.852747,30.8810689 C114.618307,32.6396104 115,34.5263487 115,36.5398352 C115,38.5272478 114.611064,40.3937063 113.832468,42.1392108 C113.053147,43.8847153 112.00005,45.4143856 110.671004,46.7303946 C109.341234,48.0464036 107.797078,49.0864635 106.039261,49.852023 C104.279995,50.6168581 102.420055,51 100.460165,51 C98.4727522,51 96.5997752,50.6168581 94.841958,49.852023 C93.0826923,49.0864635 91.5515734,48.0536464 90.25005,46.7506743 C88.9470779,45.4484266 87.9135365,43.918032 87.147977,42.1587662 C86.3824176,40.4002248 86,38.5272478 86,36.5398352" id="Fill-7"></path>
                <path d="M58.2744042,37.3168801 L36.4996374,37.3168801 C35.9695537,37.3168801 35.5388153,36.9514051 35.5388153,36.5003626 C35.5388153,36.0485949 35.9695537,35.6831199 36.4996374,35.6831199 L58.2744042,35.6831199 C58.8052131,35.6831199 59.2352263,36.0485949 59.2352263,36.5003626 C59.2352263,36.9514051 58.8052131,37.3168801 58.2744042,37.3168801 M22.2888973,44.8410236 C17.6827524,44.8410236 13.9482363,41.1065075 13.9482363,36.5003626 C13.9482363,31.8934925 17.6827524,28.1589764 22.2888973,28.1589764 C26.8957673,28.1589764 30.6302834,31.8934925 30.6302834,36.5003626 C30.6302834,41.1065075 26.8957673,44.8410236 22.2888973,44.8410236 M72.4554133,0 L0.544586715,0 C0.243649982,0 0,0.24437513 0,0.544586715 L0,72.4554133 C0,72.75635 0.243649982,73 0.544586715,73 L72.4554133,73 C72.75635,73 73,72.75635 73,72.4554133 L73,0.544586715 C73,0.24437513 72.75635,0 72.4554133,0" id="Fill-8"></path>
                <path d="M293.359256,46.9728033 C293.359256,47.0865586 293.328016,47.1822699 293.262878,47.2622908 C293.199069,47.3415272 293.123961,47.3791841 293.034231,47.3791841 L292.503157,47.3791841 L292.503157,46.5703452 L293.034231,46.5703452 C293.125291,46.5703452 293.199069,46.6087866 293.262878,46.686454 C293.328016,46.7664749 293.359256,46.8598326 293.359256,46.9728033 M293.707544,47.5298117 C293.810568,47.3634937 293.862413,47.1744247 293.862413,46.9728033 C293.862413,46.7052824 293.780658,46.4738494 293.619807,46.2855649 C293.456962,46.0964958 293.261549,46 293.034231,46 L292,46 L292,49 L292.503157,49 L292.503157,47.938546 L292.907943,47.938546 L293.433699,49 L294,49 L293.416417,47.8302824 C293.530076,47.7596757 293.628448,47.6584728 293.707544,47.5298117" id="Fill-9"></path>
                <path d="M295.423236,47.0006874 C295.423236,48.3363886 294.336389,49.4232356 293.000687,49.4232356 C291.663611,49.4232356 290.576764,48.3363886 290.576764,47.0006874 C290.576764,45.6636114 291.663611,44.5767644 293.000687,44.5767644 C294.336389,44.5767644 295.423236,45.6636114 295.423236,47.0006874 M293.000687,44 C291.346013,44 290,45.3460128 290,47.0006874 C290,48.6539872 291.346013,50 293.000687,50 C294.653987,50 296,48.6539872 296,47.0006874 C296,45.3460128 294.653987,44 293.000687,44" id="Fill-10"></path>
            </g>
        </g>
    </g>
</svg>